# xmcd CD database file generated by Grip 3.1.4
# 
# Track frame offsets:
#       150
#       20734
#       39734
#       62258
#       78023
#       98250
#       118739
#       135254
#       148381
#       166560
#       192932
# 
# Disc length: 2808 seconds
# 
# Revision: 0
# Processed by: cddbd v1.5.1PL0 Copyright (c) Steve Scherf et al.
# Submitted via: Grip 3.1.4
# 
DISCID=820af60b
DTITLE=Blues de Picolat - Ah! Perpinya
DYEAR=1900
DGENRE=Other
TTITLE0=Liquidacio (Ah! Perpinya)
TTITLE1=Malloles
TTITLE2=No cal
TTITLE3=Bluesman
TTITLE4=Mon boig
TTITLE5=Firaire country blues
TTITLE6=Dama Tramunta
TTITLE7=No Subvention Blues
TTITLE8=La serra
TTITLE9=The Sky is Crying
TTITLE10=Pais bonic
EXTD=
EXTT0=
EXTT1=
EXTT2=
EXTT3=
EXTT4=
EXTT5=
EXTT6=
EXTT7=
EXTT8=
EXTT9=
EXTT10=
PLAYORDER=
